<?xml version="1.0" encoding="UTF-8"?>
<svg xmlns="http://www.w3.org/2000/svg" xmlns:xlink="http://www.w3.org/1999/xlink" width="16pt" height="15pt" viewBox="0 0 16 15" version="1.1">
<g id="surface1">
<path style=" stroke:none;fill-rule:nonzero;fill:rgb(0%,0%,0%);fill-opacity:1;" d="M 7.476562 0.0273438 C 7.425781 0.0429688 7.339844 0.0742188 7.285156 0.109375 C 7.199219 0.15625 7.15625 0.191406 7.058594 0.300781 C 6.984375 0.378906 6.910156 0.476562 6.871094 0.542969 C 6.765625 0.722656 6.050781 2.121094 3.296875 7.492188 C 2.339844 9.355469 1.230469 11.527344 0.832031 12.308594 C 0.425781 13.097656 0.0820312 13.773438 0.0703125 13.816406 C -0.0273438 14.066406 -0.0195312 14.339844 0.0898438 14.558594 C 0.109375 14.597656 0.171875 14.675781 0.222656 14.738281 C 0.332031 14.855469 0.433594 14.921875 0.589844 14.96875 L 0.683594 14.996094 L 14.859375 14.988281 L 14.960938 14.953125 C 15.394531 14.785156 15.554688 14.289062 15.324219 13.785156 C 15.296875 13.726562 14.242188 11.675781 12.972656 9.230469 C 11.703125 6.789062 10.191406 3.867188 9.605469 2.742188 C 9.023438 1.621094 8.511719 0.636719 8.46875 0.566406 C 8.324219 0.332031 8.144531 0.152344 7.960938 0.0703125 C 7.808594 0 7.632812 -0.015625 7.476562 0.0273438 Z M 9.417969 4.566406 C 10.367188 6.410156 11.851562 9.257812 12.699219 10.898438 L 14.246094 13.882812 L 10.972656 13.886719 C 9.175781 13.886719 6.230469 13.886719 4.429688 13.886719 L 1.15625 13.882812 L 3.167969 9.960938 C 7.011719 2.457031 7.660156 1.195312 7.671875 1.210938 C 7.675781 1.214844 8.460938 2.722656 9.417969 4.566406 Z M 9.417969 4.566406 "/>
<path style=" stroke:none;fill-rule:nonzero;fill:rgb(0%,0%,0%);fill-opacity:1;" d="M 7.585938 4.507812 C 7.566406 4.511719 7.511719 4.527344 7.457031 4.542969 C 6.988281 4.671875 6.605469 5.175781 6.605469 5.65625 C 6.605469 5.71875 6.636719 5.996094 6.667969 6.269531 C 6.699219 6.546875 6.804688 7.410156 6.898438 8.199219 C 7.136719 10.238281 7.136719 10.214844 7.15625 10.300781 C 7.207031 10.519531 7.328125 10.695312 7.484375 10.78125 C 7.566406 10.824219 7.589844 10.832031 7.6875 10.835938 C 7.871094 10.847656 7.984375 10.796875 8.105469 10.65625 C 8.226562 10.519531 8.277344 10.355469 8.320312 10.035156 C 8.332031 9.925781 8.390625 9.421875 8.453125 8.917969 C 8.511719 8.414062 8.609375 7.589844 8.671875 7.085938 C 8.730469 6.582031 8.792969 6.078125 8.804688 5.96875 C 8.832031 5.726562 8.832031 5.5625 8.808594 5.453125 C 8.707031 5.023438 8.375 4.65625 7.972656 4.542969 C 7.882812 4.511719 7.652344 4.496094 7.585938 4.507812 Z M 7.585938 4.507812 "/>
<path style=" stroke:none;fill-rule:nonzero;fill:rgb(0%,0%,0%);fill-opacity:1;" d="M 7.621094 11.347656 C 7.207031 11.40625 6.90625 11.839844 6.957031 12.3125 C 6.984375 12.535156 7.0625 12.714844 7.203125 12.863281 C 7.339844 13.003906 7.488281 13.074219 7.675781 13.085938 C 7.902344 13.101562 8.078125 13.023438 8.246094 12.839844 C 8.410156 12.660156 8.480469 12.472656 8.480469 12.214844 C 8.480469 12.066406 8.464844 11.972656 8.410156 11.84375 C 8.265625 11.5 7.953125 11.300781 7.621094 11.347656 Z M 7.621094 11.347656 "/>
</g>
</svg>
