<?xml version="1.0" standalone="no"?>
<!DOCTYPE svg PUBLIC "-//W3C//DTD SVG 1.0//EN" "http://www.w3.org/TR/2001/REC-SVG-20010904/DTD/svg10.dtd">
<svg xmlns="http://www.w3.org/2000/svg" xmlns:xlink="http://www.w3.org/1999/xlink" id="body_1" width="24" height="18">

<g transform="matrix(0.0234375 0 0 0.0234375 0 0)">
	<g transform="matrix(0.0768 0 0 -0.0768 128 392.448)">
	</g>
    <path transform="matrix(0.0768 0 0 -0.0768 128 392.448)"  d="M4020.9 3971.2C 3893 3926.6 3809.7 3866.6 3741.9 3767.8C 3639.2 3614.7 3637.3 3599.2 3637.3 2698.2C 3637.3 1961.9 3639.2 1853.4 3670.2 1766.2C 3712.8 1638.3 3805.8 1529.8 3935.6 1458.1L3935.6 1458.1L4040.2 1400L4999.3 1400L5958.4 1400L6063 1458.1C 6192.8 1529.8 6285.8 1638.3 6328.4 1764.2C 6357.5 1849.5 6361.3 1969.6 6359.4 2713.6L6359.4 2713.6L6359.4 3564.2L6295.5 3692.1C 6252.9 3777.4 6200.5 3841.3 6146.3 3883.9C 5989.4 4002.1 5958.4 4006 4991.5 4006C 4212.7 4004.2 4108.1 4000.3 4020.9 3971.2z" stroke="none" fill="#000000" fill-rule="nonzero" />
	<g transform="matrix(0.0768 0 0 -0.0768 128 392.448)">
	</g>
    <path transform="matrix(0.0768 0 0 -0.0768 128 392.448)"  d="M4805.6 731.6L4805.6 266.6L3088.9 262.7L1372.2 256.9L1325.7 202.7L1279.2 148.4L1279.2 -413.5L1279.2 -973.5L1463.3 -973.5L1647.4 -973.5L1651.3 -541.4L1657.1 -111.3L3232.3 -109.4L4805.601 -107.4L4805.601 -541.4L4805.601 -973.5L4999.4 -973.5L5193.2 -973.5L5193.2 -541.4L5193.2 -109.3L6768.4 -111.2L8341.7 -111.2L8347.5 -541.3L8351.4 -973.4L8535.5 -973.4L8719.6 -973.4L8719.6 -413.4L8719.6 148.5L8673.1 202.8L8626.6 257L6909.899 262.8L5193.199 266.7L5193.199 731.7L5193.199 1196.7L4999.399 1196.7L4805.6 1196.7L4805.6 731.6z" stroke="none" fill="#000000" fill-rule="nonzero" />
	<g transform="matrix(0.0768 0 0 -0.0768 128 392.448)">
	</g>
    <path transform="matrix(0.0768 0 0 -0.0768 128 392.448)"  d="M479 -1194.4C 302.7 -1258.3 161.2 -1405.6 114.7 -1578C 103.1 -1624.5 97.30001 -1975.2 101.1 -2519.7C 106.9 -3511.7 99.20001 -3461.4 292.9 -3635.7C 459.5 -3784.9 461.5 -3784.9 1505.8 -3779.1C 2404.8 -3773.3 2412.6 -3773.3 2494 -3728.7C 2621.9 -3660.9 2707.1 -3575.6 2765.3 -3457.4L2765.3 -3457.4L2819.5 -3347L2819.5 -2475.1L2819.5 -1603.2L2773 -1500.5C 2745.9 -1440.4 2689.7 -1364.9 2633.5 -1314.5C 2468.8 -1165.3 2476.6 -1167.3 1455.5 -1167.3C 746.4 -1169.2 537.2 -1175 479 -1194.4z" stroke="none" fill="#000000" fill-rule="nonzero" />
	<g transform="matrix(0.0768 0 0 -0.0768 128 392.448)">
	</g>
    <path transform="matrix(0.0768 0 0 -0.0768 128 392.448)"  d="M4050 -1184.7C 3896.9 -1233.1 3761.3 -1343.6 3693.5 -1475.3C 3639.2 -1576 3629.5 -1754.3 3635.4 -2537.1C 3637.3 -3093.2 3647 -3337.3 3664.5 -3389.6C 3720.7 -3562 3864.1 -3701.5 4042.3 -3755.8C 4179.9 -3796.5 5821 -3796.5 5962.4 -3753.9C 6111.6 -3709.3 6225.9 -3610.5 6297.6 -3465.2L6297.6 -3465.2L6359.6 -3341.2L6359.6 -2490.6C 6361.5 -1742.7 6357.7 -1628.4 6328.6 -1543.1C 6286 -1415.2 6183.3 -1295.1 6057.3 -1229.2L6057.3 -1229.2L5958.5 -1176.9L5028.5 -1173C 4516.9 -1171.1 4077.1 -1176.9 4050 -1184.7z" stroke="none" fill="#000000" fill-rule="nonzero" />
	<g transform="matrix(0.0768 0 0 -0.0768 128 392.448)">
	</g>
    <path transform="matrix(0.0768 0 0 -0.0768 128 392.448)"  d="M7543.4 -1198.2C 7425.2 -1240.8 7279.9 -1378.4 7225.7 -1500.5L7225.7 -1500.5L7179.2 -1603.2L7179.2 -2475.1C 7179.2 -3319.9 7181.1 -3348.9 7219.9 -3436.1C 7279.9 -3564 7371 -3657 7495 -3719L7495 -3719L7605.4 -3773.2L8504.4 -3779C 9546.801 -3784.8 9541 -3786.8 9715.4 -3625.9C 9792.9 -3554.2 9833.601 -3500 9862.601 -3420.5C 9901.4 -3315.9 9903.301 -3284.9 9897.501 -2438.1L9897.501 -2438.1L9891.701 -1564.3L9835.501 -1461.6C 9777.401 -1357 9696.001 -1279.5 9572.001 -1213.6C 9508.101 -1178.7 9444.101 -1176.8 8564.501 -1172.9C 7768.2 -1169.2 7613.2 -1175 7543.4 -1198.2z" stroke="none" fill="#000000" fill-rule="nonzero" />
</g>
</svg>