<?xml version="1.0" encoding="UTF-8"?>
<svg width="24px" height="24px" viewBox="0 0 24 24" version="1.1" xmlns="http://www.w3.org/2000/svg" xmlns:xlink="http://www.w3.org/1999/xlink">
    <!-- Generator: Sketch 63.1 (92452) - https://sketch.com -->
    <title>27) Icon/payroll</title>
    <desc>Created with Sketch.</desc>
    <g id="27)-Icon/payroll" stroke="none" stroke-width="1" fill="none" fill-rule="evenodd">
        <path d="M11,13 C11.55,13 12,13.45 12,14 C12,14.55 11.55,15 11,15 L11,15 L7,15 C6.45,15 6,14.55 6,14 C6,13.45 6.45,13 7,13 L7,13 Z M17,13 C17.55,13 18,13.45 18,14 C18,14.55 17.55,15 17,15 L17,15 L15,15 C14.45,15 14,14.55 14,14 C14,13.45 14.45,13 15,13 L15,13 Z M20,16 C20,16.551 19.552,17 19,17 L5,17 C4.448,17 4,16.551 4,16 L4,11 L20,11 L20,16 Z M4,8 C4,7.449 4.448,7 5,7 L19,7 C19.552,7 20,7.449 20,8 L20,9 L4,9 L4,8 Z M19,5 L5,5 C3.346,5 2,6.346 2,8 L2,16 C2,17.654 3.346,19 5,19 L19,19 C20.654,19 22,17.654 22,16 L22,8 C22,6.346 20.654,5 19,5 L19,5 Z" id="🎨-Icon-Сolor" fill="#222B45"></path>
    </g>
</svg>