<svg xmlns="http://www.w3.org/2000/svg" data-name="Layer 1" viewBox="0 0 100 125" x="0px" y="0px">
    <g data-name="Group">
        <path data-name="Compound Path" d="M46.3,24.5l3.1,3.2-4.2,4.2a30.1,30.1,0,0,0-23.9,8.6l-3.8,3.8L33.7,60.7,9.3,85,15,90.7,39.3,66.3,55.6,82.6l3.8-3.9a29.7,29.7,0,0,0,8.8-21.2c0-.9,0-1.8-.1-2.7l4.2-4.2,3.2,3.1L90.7,38.6,61.4,9.3Zm29.2,18-3.2-3.1L59.6,52l.3,2a22,22,0,0,1-4.5,17.1L28.9,44.5A22.1,22.1,0,0,1,46,40.1l2,.3L60.6,27.8l-3.1-3.2,3.9-3.9L79.3,38.6Z"/>
    </g>
</svg>