<?xml version="1.0" encoding="UTF-8"?>
<svg xmlns="http://www.w3.org/2000/svg" xmlns:xlink="http://www.w3.org/1999/xlink" width="24px" height="24px" viewBox="0 0 24 24" version="1.1">
<g id="surface1">
<path d="M 22.199219 12.9375 L 19.007812 10.128906 L 16.175781 13.320312 L 17.878906 13.222656 C 17.425781 15.40625 15.742188 17.207031 13.558594 17.808594 C 10.921875 18.503906 8.160156 17.351562 6.792969 15 L 4.632812 16.246094 C 6.191406 18.910156 9.023438 20.496094 12 20.496094 C 12.71875 20.496094 13.464844 20.398438 14.183594 20.207031 C 17.519531 19.296875 19.992188 16.464844 20.425781 13.054688 Z M 22.199219 12.9375 "/>
<path d="M 9.792969 3.792969 C 6.480469 4.703125 4.007812 7.535156 3.574219 10.945312 L 1.800781 11.0625 L 4.992188 13.871094 L 7.824219 10.679688 L 6.121094 10.777344 C 6.574219 8.59375 8.257812 6.792969 10.441406 6.191406 C 13.054688 5.496094 15.839844 6.648438 17.183594 8.976562 L 19.34375 7.726562 C 17.425781 4.441406 13.511719 2.808594 9.792969 3.792969 Z M 9.792969 3.792969 "/>
</g>
</svg>
