<?xml version="1.0"?>
<svg xmlns="http://www.w3.org/2000/svg" viewBox="0 0 64 64" width="24" height="24">
    <path d="M 21.660156 4 C 20.320156 4 19.069141 4.5209375 18.119141 5.4609375 L 9.4609375 14.119141 C 8.5209375 15.069141 8 16.320156 8 17.660156 L 8 57 C 8 58.65 9.35 60 11 60 L 39.630859 60 C 41.990859 62.46 45.32 64 49 64 C 56.17 64 62 58.17 62 51 C 62 45.6 58.69 40.96 54 39 L 54 7 C 54 5.35 52.65 4 51 4 L 21.660156 4 z M 22 6 L 36 6 L 36 27.798828 C 35.112 27.290828 34.088 27 33 27 C 31.912 27 30.888 27.290828 30 27.798828 L 30 9 C 30 8.447 29.552 8 29 8 C 28.448 8 28 8.447 28 9 L 28 29.669922 C 27.601 30.266922 27.296953 30.935875 27.126953 31.671875 L 25.873047 37.099609 C 25.597047 38.293609 25.876625 39.530234 26.640625 40.490234 C 27.403625 41.449234 28.545484 42 29.771484 42 L 36.228516 42 C 37.454516 42 38.596375 41.449234 39.359375 40.490234 C 40.122375 39.530234 40.401953 38.294609 40.126953 37.099609 L 38.873047 31.671875 C 38.703047 30.935875 38.399 30.265922 38 29.669922 L 38 6 L 51 6 C 51.55 6 52 6.45 52 7 L 52 38.349609 C 51.04 38.119609 50.03 38 49 38 C 41.83 38 36 43.83 36 51 C 36 51.34 36.010781 51.67 36.050781 52 L 21 52 C 20.45 52 20 52.45 20 53 C 20 53.55 20.45 54 21 54 L 36.349609 54 C 36.689609 55.44 37.270781 56.79 38.050781 58 L 11 58 C 10.45 58 10 57.55 10 57 L 10 18 L 19 18 C 20.654 18 22 16.654 22 15 L 22 6 z M 20 6.5019531 L 20 15 C 20 15.552 19.551 16 19 16 L 10.498047 16 C 10.608047 15.836 10.736859 15.680062 10.880859 15.539062 L 19.539062 6.8808594 C 19.679063 6.7388594 19.834 6.6119531 20 6.5019531 z M 32 8 C 31.586 8 31.229125 8.2523281 31.078125 8.6113281 C 31.027125 8.7303281 31 8.862 31 9 C 31 9.138 31.027125 9.2696719 31.078125 9.3886719 C 31.229125 9.7476719 31.586 10 32 10 L 34 10 C 34.414 10 34.770875 9.7476719 34.921875 9.3886719 C 34.972875 9.2696719 35 9.138 35 9 C 35 8.862 34.972875 8.7303281 34.921875 8.6113281 C 34.770875 8.2523281 34.414 8 34 8 L 32 8 z M 32 13 C 31.586 13 31.229125 13.252328 31.078125 13.611328 C 31.027125 13.730328 31 13.862 31 14 C 31 14.138 31.027125 14.269672 31.078125 14.388672 C 31.229125 14.747672 31.586 15 32 15 L 34 15 C 34.414 15 34.770875 14.747672 34.921875 14.388672 C 34.972875 14.269672 35 14.138 35 14 C 35 13.862 34.972875 13.730328 34.921875 13.611328 C 34.770875 13.252328 34.414 13 34 13 L 32 13 z M 32 18 C 31.586 18 31.229125 18.252328 31.078125 18.611328 C 31.027125 18.730328 31 18.862 31 19 C 31 19.138 31.027125 19.269672 31.078125 19.388672 C 31.229125 19.747672 31.586 20 32 20 L 34 20 C 34.414 20 34.770875 19.747672 34.921875 19.388672 C 34.972875 19.269672 35 19.138 35 19 C 35 18.862 34.972875 18.730328 34.921875 18.611328 C 34.770875 18.252328 34.414 18 34 18 L 32 18 z M 32 23 C 31.586 23 31.229125 23.252328 31.078125 23.611328 C 31.027125 23.730328 31 23.862 31 24 C 31 24.138 31.027125 24.269672 31.078125 24.388672 C 31.229125 24.747672 31.586 25 32 25 L 34 25 C 34.414 25 34.770875 24.747672 34.921875 24.388672 C 34.972875 24.269672 35 24.138 35 24 C 35 23.862 34.972875 23.730328 34.921875 23.611328 C 34.770875 23.252328 34.414 23 34 23 L 32 23 z M 33 29 C 34.887 29 36.501781 30.283094 36.925781 32.121094 L 38.177734 37.550781 C 38.315734 38.148781 38.176922 38.765141 37.794922 39.244141 C 37.413922 39.724141 36.841516 40 36.228516 40 L 29.771484 40 C 29.158484 40 28.586078 39.724141 28.205078 39.244141 C 27.823078 38.765141 27.684266 38.147781 27.822266 37.550781 L 29.074219 32.121094 C 29.498219 30.283094 31.113 29 33 29 z M 33 32 C 32.448 32 32 32.447 32 33 L 32 37 C 32 37.553 32.448 38 33 38 C 33.552 38 34 37.553 34 37 L 34 33 C 34 32.447 33.552 32 33 32 z M 49 40 C 50.04 40 51.05 40.139922 52 40.419922 C 52.7 40.609922 53.37 40.879219 54 41.199219 C 57.56 43.019219 60 46.73 60 51 C 60 57.07 55.07 62 49 62 C 46.64 62 44.469687 61.26 42.679688 60 C 41.869687 59.43 41.139766 58.76 40.509766 58 C 39.559766 56.84 38.829922 55.48 38.419922 54 C 38.229922 53.35 38.110781 52.68 38.050781 52 C 38.020781 51.67 38 51.34 38 51 C 38 44.93 42.93 40 49 40 z M 49 44 C 48.448 44 48 44.447 48 45 L 48 50 L 43 50 C 42.448 50 42 50.447 42 51 C 42 51.553 42.448 52 43 52 L 48 52 L 48 57 C 48 57.553 48.448 58 49 58 C 49.552 58 50 57.553 50 57 L 50 52 L 55 52 C 55.552 52 56 51.553 56 51 C 56 50.447 55.552 50 55 50 L 50 50 L 50 45 C 50 44.447 49.552 44 49 44 z M 13 52 C 12.448 52 12 52.447 12 53 C 12 53.553 12.448 54 13 54 L 17 54 C 17.552 54 18 53.553 18 53 C 18 52.447 17.552 52 17 52 L 13 52 z"/>
</svg>
