<?xml version="1.0" standalone="no"?>
<!DOCTYPE svg PUBLIC "-//W3C//DTD SVG 1.0//EN" "http://www.w3.org/TR/2001/REC-SVG-20010904/DTD/svg10.dtd">
<svg xmlns="http://www.w3.org/2000/svg" xmlns:xlink="http://www.w3.org/1999/xlink" id="body_1" width="30" height="22">

<g transform="matrix(1.071429 0 0 1.047619 0 0)">
	<g transform="matrix(0.8750002 0 0 0.8750002 3.500001 0)">
	</g>
    <path transform="matrix(0.8750002 0 0 0.8750002 3.500001 0)"  d="M21.146 8.576L13.596 2.441C 12.671 1.69 11.329 1.69 10.404 2.441C 10.404 2.441 10.404 2.441 10.404 2.441L10.404 2.441L2.855 8.575C 2.59 8.79 2.439 9.108 2.439 9.448L2.439 9.448L2.439 20.991C 2.439 21.611 2.944 22.121 3.564 22.121L3.564 22.121L8.625999 22.121C 9.245999 22.121 9.750999 21.611 9.750999 20.991L9.750999 20.991L9.750999 13.685L14.25 13.685L14.25 20.991C 14.25 21.611 14.755 22.121 15.375 22.121L15.375 22.121L20.437 22.121C 21.057 22.121 21.562 21.611 21.562 20.991L21.562 20.991L21.562 9.448C 21.561 9.108 21.41 8.79 21.146 8.576zM20.436 20.997L15.374 20.997L15.374 13.68C 15.374 13.06 14.869 12.561 14.249 12.561L14.249 12.561L9.75 12.561C 9.13 12.561 8.625 13.06 8.625 13.68L8.625 13.68L8.625 20.997L3.564 20.997L3.564 9.448L11.114 3.314C 11.627 2.896 12.374 2.897 12.887 3.314L12.887 3.314L20.437 9.448L20.437 20.997z" stroke="none" fill="#000000" fill-rule="nonzero" />
</g>
</svg>