<?xml version="1.0" encoding="UTF-8"?>
<svg width="27px" height="39px" viewBox="0 0 27 39" version="1.1" xmlns="http://www.w3.org/2000/svg" xmlns:xlink="http://www.w3.org/1999/xlink">
    <!-- Generator: Sketch 63.1 (92452) - https://sketch.com -->
    <title>Misc / Logo</title>
    <desc>Created with Sketch.</desc>
    <defs>
        <polygon id="shape-1" points="0.156029309 0.170963227 24.2304097 0.170963227 24.2304097 24.3885246 0.156029309 24.3885246"></polygon>
        <polygon id="shape-3" points="0 0.273408197 14.4298121 0.273408197 14.4298121 14.7990209 0 14.7990209"></polygon>
    </defs>
    <g id="🕹-[Symbols]:-Button" stroke="none" stroke-width="1" fill="none" fill-rule="evenodd">
        <g id="Sidebar-/-Main" transform="translate(-18.000000, -29.000000)">
            <g id="Misc-/-Logo" transform="translate(18.560976, 29.000000)">
                <g id="Group-9">
                    <g id="Group-3" transform="translate(1.925410, 13.846392)">
                        <mask id="mask-2" fill="white">
                            <use xlink:href="#shape-1"></use>
                        </mask>
                        <g id="Clip-2"></g>
                        <path d="M12.1375911,14.5684852 C13.380764,14.490827 14.3928878,13.6147655 14.3974024,12.4017573 C14.4025148,11.0578212 13.5097665,10.1066688 12.2049804,10.0989281 C10.8796566,10.0919073 10.0189984,11.0437016 9.97663943,12.3510548 C9.93813123,13.5390327 10.9682255,14.5672016 12.1375911,14.5684852 M18.225737,7.70889172 C17.8291025,7.31033189 17.4703345,6.91305566 17.0737001,6.55749664 C16.2079075,5.77898926 15.2285157,5.18660484 14.091882,4.89265893 C13.8544148,4.83104582 13.602828,4.81628434 13.3570173,4.79895566 C13.1978501,4.788045 13.1112066,4.866345 13.1137739,5.04925893 C13.1266099,6.02929254 13.1323861,7.00996795 13.1349534,7.99064336 C13.1355952,8.13697451 13.1805214,8.23645402 13.3127329,8.30769418 C13.9372075,8.64784992 14.5578312,8.9969909 15.1855148,9.33137041 C15.2529042,9.36731139 15.3799812,9.35190811 15.4518632,9.31211631 C16.2618189,8.8590032 17.0659984,8.39818844 17.8714616,7.93673189 C17.9882698,7.86934254 18.0993017,7.79104254 18.225737,7.70889172 M19.1833075,15.156377 C19.2102632,15.1011819 19.2237411,15.0793606 19.2320845,15.0556139 C19.6768542,13.6673934 19.9348591,12.2547843 19.6794214,10.7966073 C19.6062558,10.3781516 19.4483722,9.97124828 19.2981902,9.57012123 C19.1999943,9.30762369 19.0985894,9.290295 18.8662566,9.4282827 C18.6082517,9.58167369 18.3540976,9.7408409 18.0954509,9.89359008 C17.5229624,10.233104 16.949832,10.572618 16.3747763,10.9076393 C16.2547591,10.976954 16.1912206,11.0623139 16.1950714,11.205436 C16.2156091,11.9094942 16.225878,12.614836 16.2560427,13.319536 C16.2598935,13.4081048 16.3381935,13.528122 16.4164935,13.5743319 C17.1520001,14.0107581 17.8958501,14.4337065 18.6371329,14.8585802 C18.8110616,14.9587016 18.9894829,15.0511212 19.1833075,15.156377 M13.1862976,19.6265368 C13.185014,19.7696589 13.2325075,19.8126598 13.3749878,19.7709425 C13.8319517,19.6374475 14.2966173,19.5315499 14.7465214,19.3807261 C15.8574829,19.009122 16.8657558,18.4558876 17.6885476,17.6074237 C17.8727452,17.4180917 18.0100911,17.1831917 18.160273,16.9624114 C18.2379312,16.849454 18.196214,16.7551089 18.075555,16.6902868 C17.8688943,16.578613 17.6635173,16.4637302 17.4594239,16.3482057 C16.7983665,15.9778852 16.1366673,15.6082065 15.4788189,15.2333934 C15.3440402,15.156377 15.2278739,15.1499589 15.0956624,15.234677 C14.8761657,15.3745901 14.6483255,15.5023089 14.4262616,15.6396548 C14.0540157,15.8687786 13.6779189,16.0946934 13.3159419,16.3392204 C13.2421345,16.3892811 13.181805,16.5157163 13.1792378,16.6087778 C13.1664017,17.1048917 13.1734616,17.6016475 13.1734616,18.0977614 M11.2474099,18.095836 C11.2474099,17.6119163 11.2422755,17.1286384 11.2499771,16.6453606 C11.2531861,16.4900442 11.2024837,16.3867139 11.0670632,16.3096975 C10.8347304,16.177486 10.6100993,16.0324384 10.3803337,15.8963761 C10.0087296,15.6775212 9.63520008,15.4618753 9.26295418,15.2430204 C9.15705664,15.1807655 9.06592057,15.1871835 8.9542468,15.2494384 C8.47481975,15.5170704 7.99025828,15.7737917 7.5056968,16.0317966 C7.10200254,16.2468007 6.69702467,16.4605212 6.291405,16.6691073 C6.16561156,16.7339294 6.14186484,16.7968261 6.24776238,16.9040073 C6.37997385,17.0394278 6.50191648,17.1851171 6.62963533,17.3250302 C7.46141238,18.2383163 8.40165418,19.0052712 9.55048205,19.4917581 C9.96123615,19.6656868 10.3835427,19.7998237 10.8315214,19.8364065 C11.1030042,19.8595114 11.1723189,19.8004655 11.1748861,19.5276991 M8.1898591,11.1213598 C8.17830664,11.0347163 8.10899189,10.9256098 8.0339009,10.8813253 C7.57308615,10.6079171 7.10200254,10.3524794 6.63669516,10.0874147 C6.22144844,9.85058926 5.80941074,9.61119664 5.39673123,9.37052041 C5.28569926,9.30634008 5.22023533,9.31468352 5.18621975,9.45331303 C5.14193533,9.63686877 5.08353123,9.8178573 5.03347057,10.0001294 C4.72347959,11.1264942 4.57008861,12.265695 4.72925582,13.4331352 C4.80177959,13.9671155 4.91088615,14.4901852 5.18814516,14.9612688 C5.29981893,15.1518843 5.36592467,15.1672876 5.55012221,15.0575393 C6.38639189,14.5588581 7.22073615,14.0563261 8.05957303,13.5627794 C8.209755,13.4748524 8.26623369,13.3631786 8.26430828,13.195668 C8.25789025,12.765018 8.26174107,12.334368 8.26174107,11.903718 M11.3635763,6.45865893 C11.3635763,5.9432909 11.3629345,5.42728107 11.3648599,4.91127123 C11.3648599,4.78547779 11.3244263,4.7283573 11.188364,4.76686549 C11.0125099,4.81564254 10.8334468,4.85286713 10.6563091,4.89715156 C9.43880828,5.1987991 8.30217467,5.67565893 7.31829025,6.471495 C6.96208943,6.75902287 6.63412795,7.0773573 6.39922795,7.47784254 C6.2920468,7.66139828 6.30680828,7.7441909 6.46533369,7.83468516 C7.32214107,8.32245566 8.18151566,8.80573352 9.03575582,9.29671303 C9.17823615,9.37822205 9.29825336,9.38014746 9.43688287,9.29478762 C9.7372468,9.11123189 10.0446706,8.93987041 10.3463181,8.75759828 C10.6364132,8.58174418 10.9277919,8.40653189 11.2056927,8.21206549 C11.2807837,8.15943762 11.348173,8.03877861 11.3500984,7.94764254 M16.6013329,23.4876253 C16.2207435,23.612777 15.8639009,23.7347196 15.5006402,23.8406171 C15.4537886,23.854095 15.3588017,23.7963327 15.3267116,23.746272 C15.067423,23.3374434 14.8151943,22.9254057 14.5700255,22.5088753 C14.5013525,22.3914253 14.4397394,22.3413647 14.2921247,22.372813 C13.935282,22.4485458 13.573305,22.5101589 13.2119698,22.5608614 C13.0373993,22.5846081 12.9693681,22.6661171 12.9488304,22.8355532 C12.8942771,23.2706958 12.8217534,23.7019876 12.7633493,24.1358466 C12.7492296,24.2385352 12.7280501,24.3027155 12.6035402,24.3091335 C12.2197419,24.3290294 11.8365853,24.359836 11.4277566,24.3887171 C11.332128,23.860513 11.2281558,23.3425778 11.149214,22.8207917 C11.1229001,22.6462212 11.0516599,22.5769065 10.8860747,22.5473835 C10.5709493,22.4915466 10.2558239,22.4292917 9.94711648,22.3464991 C9.75265008,22.2951548 9.64675254,22.3497081 9.55304926,22.5217114 C9.32007467,22.9453016 9.0704132,23.3592647 8.83358779,23.7809294 C8.78160172,23.8739909 8.73154107,23.8881106 8.63077795,23.8585876 C8.32463779,23.7674516 8.01528861,23.6801663 7.70273041,23.612777 C7.53778697,23.5774778 7.53201074,23.4901925 7.55126484,23.3586229 C7.62571402,22.8612253 7.68925254,22.3619024 7.76755254,21.8645048 C7.79194107,21.7098302 7.76113451,21.6148434 7.61865418,21.5256327 C7.35294762,21.3600475 7.09879352,21.1739245 6.85105746,20.9820253 C6.69702467,20.8639335 6.58150008,20.8735606 6.44222877,21.0044884 C6.02890746,21.394063 5.6072427,21.7746524 5.17787631,22.1687196 C4.85119844,21.9402376 4.53093861,21.7175319 4.18243943,21.4742884 C4.32748697,21.1636557 4.46868369,20.8581573 4.61308943,20.5533007 C4.70807631,20.3530581 4.80691402,20.1534573 4.90767713,19.9557819 C4.96993205,19.8338393 4.97185746,19.733718 4.87301975,19.6181934 C4.66443369,19.3755917 4.46611648,19.123363 4.2761427,18.8653581 C4.18179762,18.7363557 4.07782549,18.7376393 3.95139025,18.7915507 C3.44629107,19.005913 2.94119189,19.2202753 2.4354509,19.4346376 C2.40656975,19.4474737 2.3770468,19.4577425 2.35073287,19.4686532 C2.13701238,19.1284975 1.9258591,18.800536 1.72561648,18.4648729 C1.70700418,18.4327827 1.74743779,18.3429302 1.78530418,18.3031384 C2.12995254,17.9469376 2.4733173,17.5875278 2.83272713,17.2454466 C2.97584926,17.1093843 2.99702877,17.0047704 2.9052509,16.8269909 C2.75891975,16.5433139 2.63633533,16.2455171 2.52851238,15.9451532 C2.47973533,15.8071655 2.41234598,15.7551794 2.27692549,15.7609557 C1.77439352,15.7853442 1.27121975,15.7981802 0.76932959,15.8360466 C0.595400902,15.8482409 0.504906639,15.8116581 0.458696803,15.6351622 C0.390023852,15.3771573 0.307873033,15.120436 0.213527951,14.8707745 C0.160258279,14.7302196 0.213527951,14.6743827 0.327768934,14.6134114 C0.84762959,14.3380778 1.36492303,14.0582516 1.87964926,13.7732909 C1.92906811,13.7463352 1.98875582,13.668677 1.98362139,13.6198999 C1.94703861,13.2701171 1.8867091,12.9222598 1.85461893,12.5711934 C1.83985746,12.4203696 1.76605008,12.3715925 1.63768943,12.3452786 C1.20896484,12.256068 0.782807459,12.154663 0.352799262,12.0737958 C0.197482869,12.0442729 0.151273033,11.9833016 0.156407459,11.8273434 C0.168601721,11.4627991 0.160258279,11.097613 0.160258279,10.7067548 C0.613371393,10.6528434 1.05749926,10.591872 1.50419434,10.5482294 C1.95859107,10.5052286 1.95859107,10.5122884 2.08823533,10.0655934 C2.15755008,9.82684254 2.22365582,9.58744992 2.30580664,9.35319172 C2.36421074,9.18503926 2.33340418,9.0759327 2.17680418,8.97581139 C1.7705427,8.71523926 1.37519189,8.43412943 0.970214016,8.17099008 C0.857256639,8.09782451 0.854047623,8.03428598 0.899615656,7.91747779 C1.00872221,7.63700975 1.10948533,7.3533327 1.19099434,7.06452123 C1.23592057,6.90663762 1.30523533,6.87005484 1.4567009,6.90407041 C1.96051648,7.01766959 2.46625746,7.12099992 2.96943123,7.2339573 C3.1010009,7.26348025 3.18443533,7.2358827 3.26979516,7.12292533 C3.46169434,6.86748762 3.66707139,6.62103516 3.87886648,6.38100074 C4.00337631,6.23916221 4.01621238,6.12363762 3.89170254,5.97153025 C3.5322927,5.5325368 3.18315172,5.08391631 2.81668205,4.62181795 C3.05671648,4.32787205 3.29161648,4.03264254 3.53935254,3.74896549 C3.56438287,3.71944254 3.67348943,3.73420402 3.72547549,3.76308516 C4.11376648,3.97873107 4.50655008,4.18924254 4.88072139,4.42799336 C5.116905,4.57881713 5.30559516,4.592295 5.5270173,4.40553025 C5.72148369,4.24187041 5.9396968,4.10516631 6.15598451,3.97102943 C6.29268861,3.88631139 6.32413697,3.78811549 6.27343451,3.64306795 C6.11298369,3.17968598 5.95702549,2.71437861 5.79850008,2.25099664 C5.76961893,2.1656368 5.73881238,2.08091877 5.70864762,1.99427533 C6.06549025,1.80494336 6.40757139,1.6175368 6.75671238,1.44360811 C6.79008615,1.42627943 6.8780132,1.47313107 6.91395418,1.51356467 C7.24512467,1.88260156 7.57629516,2.25292205 7.8959132,2.63222779 C8.01015418,2.76893189 8.10000664,2.82669418 8.2874132,2.74197615 C8.57815008,2.61104828 8.88557385,2.51156877 9.19299762,2.42620893 C9.3457468,2.38320811 9.41249434,2.31710238 9.41506156,2.16242779 C9.4240468,1.65989582 9.44715172,1.15672205 9.44650992,0.653548279 C9.44650992,0.493097459 9.49079434,0.415439262 9.64931975,0.382065492 C9.91823533,0.32687041 10.1858673,0.263973689 10.447723,0.185673689 C10.5927706,0.141389262 10.643473,0.200435164 10.6954591,0.317885164 C10.9303591,0.849940082 11.1768116,1.37686057 11.4085025,1.9101991 C11.4579214,2.02379828 11.5105493,2.04369418 11.6286411,2.03406713 C11.9610952,2.00646959 12.2941911,1.99170811 12.627287,1.9878573 C12.7659165,1.98657369 12.8236788,1.9294532 12.8602616,1.80686877 C12.9822042,1.39418926 13.1189083,0.98471877 13.2325075,0.569472049 C13.2793591,0.396826967 13.3538083,0.342273689 13.534155,0.365378607 C13.8884304,0.410304836 14.2459148,0.430200738 14.6245788,0.461649098 C14.6386984,0.929523689 14.6534599,1.38520402 14.666296,1.84088434 C14.6688632,1.92560238 14.6772066,2.01224582 14.6643706,2.09503844 C14.6412657,2.2426532 14.7163566,2.30619172 14.8408665,2.35240156 C15.1662607,2.47113516 15.4910132,2.59243598 15.811273,2.72464746 C15.9620968,2.78690238 16.0615763,2.76187205 16.163623,2.63094418 C16.4652706,2.24457861 16.780396,1.86848189 17.0826853,1.48275811 C17.1584181,1.38584582 17.2168222,1.37878598 17.3265706,1.43205566 C17.602546,1.56683434 17.8817304,1.6945532 18.1686165,1.80301795 C18.3271419,1.86270566 18.3425452,1.94357287 18.2982607,2.08541139 C18.1423025,2.5770327 17.9991804,3.07314664 17.8419386,3.56412615 C17.7989378,3.69697943 17.8252517,3.77720484 17.9279402,3.86962451 C18.1699001,4.08912123 18.4003075,4.32145402 18.6287894,4.55442861 C18.7488066,4.67637123 18.858555,4.69562533 19.005528,4.59614582 C19.4483722,4.29449828 19.8963509,3.99991057 20.3468968,3.70981549 C20.3911812,3.68157615 20.4938698,3.67451631 20.5240345,3.70403926 C20.7878157,3.95690975 21.0394025,4.2213327 21.318587,4.50500975 C21.0625075,4.87276303 20.8141296,5.26426303 20.5278853,5.62752369 C20.316732,5.89643926 20.2487009,6.12941385 20.4778247,6.42271795 C20.6177378,6.60049746 20.7197845,6.81100893 20.8186222,7.01638598 C20.8962804,7.17747861 21.0105214,7.19224008 21.1581361,7.15501549 C21.6337124,7.03692369 22.1086468,6.91819008 22.584223,6.80009828 C22.665732,6.77891877 22.7465993,6.75902287 22.8261829,6.73976877 C22.9847083,7.10880566 23.1419501,7.46629008 23.2863558,7.82826713 C23.3011173,7.86356631 23.2484894,7.94700074 23.2048468,7.9790909 C22.8088542,8.27752943 22.4141452,8.57853516 22.0046747,8.8590032 C21.8429402,8.97067697 21.8031484,9.06887287 21.866687,9.25948844 C21.9668083,9.56177779 22.0425411,9.87561959 22.0996616,10.1894614 C22.1279009,10.3428524 22.1965739,10.4018983 22.3371288,10.4166598 C22.8370935,10.4699294 23.3357747,10.533468 23.837023,10.5771106 C23.993623,10.5912302 24.0744902,10.6329475 24.0937443,10.7985327 C24.1251927,11.0706573 24.1598501,11.3440655 24.2208214,11.6104139 C24.2586878,11.7753573 24.1803878,11.8112983 24.0565198,11.8542991 C23.5064943,12.0436311 22.9583943,12.2368139 22.4128616,12.4370565 C22.3570247,12.4575942 22.2896353,12.5346106 22.2857845,12.5898057 C22.254978,12.9678278 22.2453509,13.3464917 22.215828,13.723872 C22.2049173,13.8657106 22.2511271,13.9382343 22.382055,13.9889368 C22.7960181,14.1493876 23.2048468,14.3233163 23.6194517,14.4831253 C23.742678,14.5306188 23.7933804,14.5838884 23.7638575,14.7282942 C23.6894083,15.0915548 23.6329296,15.4593081 23.5719583,15.8129417 C23.2260263,15.8129417 22.8961394,15.8193598 22.5662525,15.8110163 C22.3506066,15.8045983 22.1343189,15.7853442 21.9212402,15.7545376 C21.7826107,15.7333581 21.7184304,15.7917622 21.6651607,15.9040778 C21.5130534,16.223054 21.3622296,16.5420302 21.2017788,16.855872 C21.1311804,16.9945016 21.1497927,17.0926975 21.2646755,17.1998786 C21.6375632,17.547736 22.0014657,17.9045786 22.3679353,18.2582122 C22.391682,18.2806753 22.4109361,18.3057057 22.4256976,18.324318 C22.2434255,18.6663991 22.0630788,18.9988532 21.8878665,19.3345163 C21.8204771,19.4648024 21.7280575,19.4166671 21.6388468,19.3807261 C21.165196,19.1907524 20.6902616,19.0052712 20.222387,18.8043868 C20.0709214,18.7395647 19.9765763,18.764595 19.8604099,18.8749852 C19.6332116,19.0906311 19.3912517,19.2908737 19.1480083,19.4891909 C19.008737,19.6021483 18.9772886,19.7118966 19.0697083,19.8755565 C19.3302804,20.3357294 19.5741657,20.8061712 19.834096,21.266986 C19.8925001,21.3703163 19.8777386,21.423586 19.791737,21.4941843 C19.560046,21.6860835 19.331564,21.8805499 19.1107837,22.0846434 C19.0202894,22.1687196 18.9541837,22.1712868 18.8624058,22.0936286 C18.512623,21.7983991 18.1500042,21.5172893 17.8092066,21.2124327 C17.6185911,21.041713 17.4504386,20.9980704 17.2187476,21.1315655 C16.9928329,21.2612098 16.7502312,21.3632565 16.506346,21.4576016 C16.3330591,21.5249909 16.304178,21.6392319 16.3304919,21.7983991 C16.4126427,22.3015729 16.4928681,22.8053884 16.5743771,23.3085622 C16.5840042,23.3656827 16.5917058,23.423445 16.6013329,23.4876253" id="Fill-1" fill="#FFFFFF" mask="url(#mask-2)"></path>
                    </g>
                    <g id="Group-6" transform="translate(0.000000, 0.368523)">
                        <mask id="mask-4" fill="white">
                            <use xlink:href="#shape-3"></use>
                        </mask>
                        <g id="Clip-5"></g>
                        <path d="M6.21284828,7.82390287 C6.2763868,8.34568893 6.9213991,8.80329467 7.50736549,8.7115168 C8.00476303,8.6332168 8.53360893,8.15635697 8.43733844,7.45935861 C8.35775484,6.88622828 7.85907369,6.40936844 7.20122533,6.47675779 C6.58381057,6.53965451 6.06523352,7.28607172 6.21284828,7.82390287 M10.2902245,6.26945533 C10.3903458,6.23608156 10.5238409,6.19949877 10.6496343,6.1455873 C10.7792786,6.09039221 10.9057139,6.02428648 11.0263729,5.9511209 C11.2407352,5.81890943 11.358827,5.57438238 11.2927212,5.33306434 C11.1483155,4.80421844 10.8505188,4.37485205 10.3704499,4.09951844 C10.0893401,3.93906762 9.73057205,3.9544709 9.49567205,4.25034221 C9.18953189,4.63606598 9.02394664,5.07826844 9.02779746,5.56796434 C9.02908107,5.83687992 9.14524746,6.06664549 9.4071032,6.20399139 C9.68372041,6.34839713 9.96739746,6.33363566 10.2902245,6.26945533 M10.5065122,7.81491762 C10.3332253,7.87845615 10.151595,7.92338238 9.98986057,8.00745861 C9.55086713,8.23401516 9.41544664,8.66659057 9.6432868,9.10558402 C9.86021631,9.52275615 10.2061483,9.81285123 10.6258876,10.0047504 C10.8344737,10.1003791 11.061672,10.0798414 11.2311081,9.90783811 C11.6238917,9.5124873 11.8517319,9.03434385 11.8440302,8.47212418 C11.8408212,8.15764057 11.6495639,7.87203811 11.2747507,7.80143975 C11.0135368,7.7520209 10.7664425,7.79694713 10.5065122,7.81491762 M8.28330566,12.1817471 C8.43926385,12.1239848 8.61190893,12.0764914 8.76979254,12.0001168 C9.05026057,11.8646963 9.30505648,11.5219734 9.15166549,11.1259807 C8.98736385,10.7030324 8.71074664,10.3705783 8.34363516,10.1209168 C7.92197041,9.83467254 7.46436467,9.94249549 7.1948073,10.3769963 C6.95028025,10.7723471 6.87198025,11.2126242 6.91819008,11.6689463 C6.94001139,11.8871594 7.06837205,12.0591627 7.28851057,12.1336119 C7.61069582,12.2433602 7.9405827,12.2074193 8.28330566,12.1817471 M5.60313516,9.5529209 C5.51584992,9.12868893 5.25014336,8.89378893 4.8458073,8.87774385 C4.35354418,8.85784795 3.91904336,9.03626926 3.53331959,9.32893156 C3.33756959,9.47782992 3.27531467,9.7480291 3.36452533,9.9822873 C3.53909582,10.439893 3.82148926,10.8166316 4.24379582,11.0746365 C4.4934573,11.2286693 4.91255484,11.2729537 5.18147041,10.9353652 C5.3355032,10.7408988 5.41893762,10.521402 5.49723762,10.2948455 C5.58452287,10.038766 5.64164336,9.77947746 5.60313516,9.5529209 M3.99220893,7.44523893 C4.22197451,7.3598791 4.44724746,7.30404221 4.64620648,7.19814467 C5.101245,6.95618484 5.22062041,6.4998627 4.95748107,6.05573484 C4.73541713,5.68092172 4.40039582,5.43061844 4.01338844,5.24449549 C3.75217451,5.11998566 3.46978107,5.17453893 3.28750893,5.39917008 C2.97559254,5.78168484 2.79332041,6.22196189 2.78882779,6.72000123 C2.78561877,7.04475369 2.98265238,7.41443238 3.39276467,7.44331352 C3.5949327,7.4574332 3.79838434,7.44523893 3.99220893,7.44523893 M6.40025484,2.99690041 C6.19937041,3.08611107 5.96126139,3.16569467 5.75203352,3.29212992 C5.50429746,3.44231189 5.29378598,3.78310943 5.48247615,4.17589303 C5.67694254,4.5795873 5.97987369,4.88636926 6.36110484,5.10458238 C6.8033073,5.35681107 7.25128598,5.21304713 7.48682779,4.76121762 C7.68642861,4.37870287 7.7249368,3.96538156 7.68001057,3.543075 C7.645995,3.22859139 7.44575238,3.01872172 7.13126877,2.99304959 C6.90086139,2.97379549 6.66852861,2.99369139 6.40025484,2.99690041 M-0.000449262295,8.06008648 C0.295422049,7.96509959 0.582949918,7.8701127 0.87111959,7.78090205 C1.0482573,7.72570697 1.04569008,7.72891598 1.05595893,7.54086762 C1.06622779,7.36372992 1.08034746,7.18723402 1.10281057,7.01137992 C1.11757205,6.90034795 1.08548189,6.83809303 0.977017131,6.79637582 C0.705534344,6.69112008 0.43854418,6.57367008 0.167703197,6.46713074 C0.0958212295,6.43889139 0.0881195902,6.40295041 0.100313852,6.33363566 C0.129195,6.15457254 0.156150738,5.97486762 0.168986803,5.7951627 C0.176688443,5.69247418 0.213913033,5.66038402 0.313392541,5.66295123 C0.620174508,5.67065287 0.927598279,5.66872746 1.23373844,5.67514549 C1.32038189,5.6770709 1.36787533,5.64947336 1.40638352,5.56796434 C1.48853434,5.39403566 1.58095402,5.22459959 1.6765827,5.05644713 C1.73049418,4.96274385 1.72407615,4.8947127 1.6361491,4.82283074 C1.38392041,4.61681189 1.13490074,4.404375 0.884597459,4.19450533 C0.870477787,4.18166926 0.856999918,4.16819139 0.837104016,4.14829549 C0.946210574,3.93778402 1.05467533,3.72919795 1.17212533,3.503925 C1.36659172,3.56489631 1.5572073,3.62394221 1.74653926,3.68555533 C1.88131795,3.72919795 2.01545484,3.77540779 2.14959172,3.82225943 C2.21954828,3.84664795 2.27345975,3.83445369 2.32737123,3.77604959 C2.45509008,3.63677828 2.58665975,3.50007418 2.72336385,3.36978811 C2.79652943,3.29983156 2.80487287,3.23629303 2.75481221,3.1522168 C2.60334664,2.8980627 2.45573189,2.6432668 2.30554992,2.3878291 C2.27987779,2.34418648 2.25356385,2.30182746 2.21890648,2.24534877 C2.30554992,2.17988484 2.39090975,2.11827172 2.47241877,2.05344959 C2.56162943,1.98156762 2.65276549,1.91225287 2.73427451,1.83266926 C2.78882779,1.77875779 2.82733598,1.7806832 2.88381467,1.82432582 C3.1244909,2.00980697 3.36901795,2.18822828 3.60584336,2.37691844 C3.68671057,2.44174057 3.74318926,2.44430779 3.83111631,2.38526189 C3.99734336,2.27422992 4.17063025,2.17089959 4.34905156,2.07976352 C4.42991877,2.03740451 4.44660566,1.98862746 4.43312779,1.91096926 C4.37921631,1.61253074 4.33172287,1.31345041 4.27075156,1.0169373 C4.24957205,0.917457787 4.26754254,0.864188115 4.36124582,0.823754508 C4.513995,0.758932377 4.66353516,0.68897582 4.8085827,0.611959426 C4.8849573,0.57152582 4.91961467,0.597839754 4.96197369,0.657527459 C5.16735074,0.946338934 5.3746532,1.233225 5.58516467,1.51818566 C5.60762779,1.5470668 5.66282287,1.57530615 5.69427123,1.56760451 C5.89772287,1.52203648 6.09732369,1.46170697 6.30141713,1.41678074 C6.38677697,1.39752664 6.41694172,1.35645123 6.42400156,1.27430041 C6.44582287,1.01180287 6.47662943,0.749947131 6.49524172,0.486807787 C6.50230156,0.394388115 6.53439172,0.358447131 6.6287368,0.350745492 C6.84759172,0.332133197 7.06580484,0.300684836 7.29621221,0.273087295 C7.34948189,0.478464344 7.40275156,0.678065164 7.4508868,0.879591393 C7.48040975,1.00217582 7.49581303,1.12796926 7.53047041,1.24927008 C7.54202287,1.29034549 7.59015811,1.34425697 7.62930811,1.35260041 C7.85714828,1.39816844 8.08691385,1.4296168 8.31539582,1.47133402 C8.4097409,1.4880209 8.43990566,1.42704959 8.47263762,1.36222746 C8.60805811,1.09972992 8.74604582,0.838515984 8.8782573,0.574734836 C8.90906385,0.513763525 8.94051221,0.501569262 9.00725975,0.518897951 C9.18632287,0.564465984 9.36666959,0.608108607 9.54894172,0.636989754 C9.65419746,0.653034836 9.67537697,0.697961066 9.66510811,0.794873361 C9.63109254,1.10358074 9.60670402,1.41357172 9.57333025,1.7222791 C9.56562861,1.8005791 9.58937533,1.84357992 9.65676467,1.88337172 C9.82555893,1.98413484 9.99114418,2.09195779 10.1535204,2.20298975 C10.2427311,2.26460287 10.311404,2.26203566 10.389704,2.18116844 C10.627813,1.93599959 10.8716983,1.69532336 11.1252106,1.44116926 C11.3158261,1.56247008 11.5083671,1.6831291 11.6957737,1.81084795 C11.7150278,1.82368402 11.7163114,1.88914795 11.7034753,1.92123811 C11.6084884,2.1542127 11.5077253,2.38526189 11.4095294,2.61759467 C11.3851409,2.67599877 11.3498417,2.73183566 11.3408565,2.79216516 C11.3331548,2.84286762 11.3395729,2.91154057 11.3697376,2.94940697 C11.485904,3.09830533 11.6187573,3.23372582 11.7349237,3.38198238 C11.8048802,3.47055123 11.874195,3.48017828 11.9698237,3.43461025 C12.2316794,3.3075332 12.4948188,3.18302336 12.7573163,3.05722992 C12.8035261,3.03540861 12.8490942,3.01294549 12.9074983,2.98406434 C12.9742458,3.0918873 13.039068,3.19842664 13.1064573,3.30239877 C13.1558761,3.37813156 13.2033696,3.45771516 13.2649827,3.5225373 C13.3342975,3.59377746 13.3099089,3.63870369 13.254072,3.6990332 C13.045486,3.92494795 12.8420343,4.15407172 12.6347319,4.37998648 C12.5865966,4.43261434 12.5737606,4.47368975 12.611627,4.54492992 C12.7149573,4.73875451 12.8016007,4.94220615 12.9036475,5.13731434 C12.9229016,5.17518074 12.9832311,5.21689795 13.0230229,5.21561434 C13.2316089,5.20855451 13.4395532,5.18994221 13.6468557,5.17197172 C13.7649475,5.16170287 13.8811139,5.13538893 13.9985639,5.13282172 C14.0396393,5.13217992 14.1044614,5.16940451 14.1198647,5.2066291 C14.1949557,5.37927418 14.2597778,5.55769549 14.3168983,5.73675861 C14.3265253,5.76499795 14.2867335,5.82661107 14.2540016,5.84714877 C14.0197434,5.99155451 13.7803507,6.12825861 13.5435253,6.26881352 C13.4960319,6.29641107 13.4523893,6.33363566 13.4029704,6.35545697 C13.2861622,6.40744303 13.2694753,6.48574303 13.2957893,6.60704385 C13.3381483,6.79830123 13.3593278,6.99533484 13.3811491,7.19044303 C13.3907761,7.27195205 13.4260753,7.30596762 13.5037335,7.3200873 C13.7675147,7.36565533 14.030654,7.4182832 14.2944352,7.46320943 C14.3772278,7.4766873 14.4163778,7.50235943 14.4144524,7.59670451 C14.4106016,7.79309631 14.4163778,7.99012992 14.4292139,8.18587992 C14.4343483,8.26610533 14.4067507,8.28728484 14.334227,8.29627008 C14.0415647,8.33542008 13.750186,8.38291352 13.4568819,8.4175709 C13.3689548,8.42719795 13.3355811,8.46634795 13.3156852,8.54400615 C13.2669081,8.74617418 13.2174893,8.94962582 13.1603688,9.14986844 C13.1327712,9.24613893 13.1584434,9.30261762 13.2425196,9.35396189 C13.5172114,9.52211434 13.7886942,9.69732664 14.060177,9.86932992 C13.9908622,10.1016627 13.9279655,10.3275775 13.8515909,10.5502832 C13.8432475,10.5765971 13.759813,10.5958512 13.7155286,10.5894332 C13.4132393,10.5387307 13.1109499,10.4841775 12.8099442,10.4232061 C12.7181663,10.4045939 12.6674639,10.4283406 12.614836,10.5040734 C12.5063712,10.658748 12.3889212,10.8070045 12.2682622,10.9526939 C12.1944548,11.0406209 12.1925294,11.1112193 12.268904,11.1991463 C12.4928934,11.4571512 12.7111065,11.7202906 12.9389466,11.9911316 C12.8016007,12.1701947 12.6674639,12.3492578 12.5262671,12.5219029 C12.510222,12.5424406 12.4460417,12.5430824 12.4171606,12.5276791 C12.1918876,12.4127963 11.9634057,12.3043316 11.750327,12.1714783 C11.5744729,12.0610881 11.4300671,12.0411922 11.2715417,12.1965086 C11.175913,12.2895701 11.0610302,12.3620939 10.9480729,12.4339758 C10.8569368,12.4910963 10.8421753,12.5591275 10.8781163,12.6534725 C10.9852975,12.9332988 11.0892696,13.213125 11.1945253,13.4942348 C11.2112122,13.5372357 11.2278991,13.5815201 11.2439442,13.6232373 C11.0321491,13.7445381 10.8286975,13.8626299 10.6220368,13.9743037 C10.6021409,13.9852143 10.5488712,13.9589004 10.5264081,13.9345119 C10.3248819,13.7233586 10.1252811,13.5122053 9.93081467,13.2952758 C9.87305238,13.2310955 9.82876795,13.2079906 9.7414827,13.2464988 C9.53995648,13.3357094 9.33393762,13.4146512 9.12599336,13.487175 C9.02972287,13.5218324 9.00276713,13.5776693 9.00918516,13.673298 C9.02779746,13.9364373 9.03742451,14.2002184 9.05732041,14.4633578 C9.06245484,14.5397324 9.04448434,14.5756734 8.96618434,14.5955693 C8.74925484,14.6501225 8.53425074,14.7136611 8.30641057,14.7778414 C8.22040893,14.576957 8.1344073,14.3805652 8.05225648,14.1816061 C8.00861385,14.0763504 7.96818025,13.9691693 7.93480648,13.8600627 C7.91234336,13.7881807 7.87190975,13.7586578 7.79874418,13.7586578 C7.57475484,13.7586578 7.34948189,13.7592996 7.12613434,13.7528816 C7.02665484,13.7503143 6.9996991,13.8119275 6.97466877,13.8870184 C6.88096549,14.1713373 6.78662041,14.4543725 6.69099172,14.7380496 C6.68393189,14.7605127 6.67430484,14.7810504 6.6666032,14.7990209 C6.4329868,14.788752 6.20514664,14.7771996 5.97794828,14.7682143 C5.89002123,14.7650053 5.89258844,14.7033922 5.88873762,14.6443463 C5.86948352,14.3375643 5.84894582,14.032066 5.83418434,13.7246422 C5.82969172,13.6354316 5.80081057,13.5853709 5.71159992,13.5513553 C5.5312532,13.4820406 5.3560409,13.4011734 5.18211221,13.3183807 C5.0826327,13.2702455 5.01652697,13.2875742 4.95234664,13.3780684 C4.7687909,13.6392824 4.57817533,13.8940783 4.39397779,14.1546504 C4.357395,14.2047111 4.32915566,14.2220398 4.27010975,14.1938004 C4.1019573,14.1155004 3.93316303,14.0397676 3.76244336,13.9710947 C3.69056139,13.9422135 3.67644172,13.9056307 3.69377041,13.8369578 C3.76629418,13.5552061 3.83239992,13.2708873 3.90941631,12.9897775 C3.94086467,12.8768201 3.92417779,12.7991619 3.82534008,12.7266381 C3.68350156,12.6213824 3.54872287,12.505216 3.4184368,12.3851988 C3.34270402,12.3165258 3.2798073,12.3300037 3.20728352,12.3800643 C2.93580074,12.5681127 2.66303434,12.7555193 2.39090975,12.9429258 C2.37807369,12.9512693 2.36523762,12.9596127 2.3414909,12.9756578 C2.25613107,12.8774619 2.17333844,12.7799078 2.0873368,12.6836373 C2.03149992,12.6233078 1.97823025,12.5565602 1.91276631,12.5090668 C1.82419746,12.4442447 1.84345156,12.3903332 1.89479582,12.3139586 C2.06487369,12.0630135 2.22532451,11.8062922 2.39476057,11.5547053 C2.44032861,11.4860324 2.42877615,11.4404643 2.38256631,11.3775676 C2.25484746,11.2036389 2.13097943,11.0252176 2.01545484,10.8429455 C1.969245,10.7697799 1.91469172,10.7781234 1.85307861,10.7928848 C1.56298352,10.864125 1.27160484,10.9321561 0.98471877,11.0149488 C0.877537623,11.0451135 0.818491721,11.0348447 0.767789262,10.9308725 C0.697190902,10.785825 0.616965492,10.6452701 0.530963852,10.5092078 C0.484754016,10.4354004 0.509784344,10.3988176 0.56562123,10.351966 C0.839029426,10.126693 1.11115402,9.89949467 1.38006959,9.6690873 C1.40830893,9.64534057 1.43462287,9.58822008 1.42499582,9.55741352 C1.3620991,9.35460369 1.28572451,9.15628648 1.22282779,8.95347664 C1.19779746,8.87260943 1.15094582,8.85271352 1.07585484,8.85207172 C0.812073689,8.85142992 0.548292541,8.84244467 0.285153197,8.8469373 C0.185031885,8.8482209 0.148449098,8.81741434 0.131762213,8.71921844 C0.0964630328,8.50293074 0.0470441803,8.28921025 -0.000449262295,8.06008648" id="Fill-4" fill="#D9E4FF" mask="url(#mask-4)"></path>
                    </g>
                    <path d="M19.4562664,13.252275 C20.716768,12.9949119 21.6769057,11.6702299 21.3476607,10.2788004 C21.0421623,8.98877582 19.6937336,8.18459631 18.4287393,8.45287008 C17.1695213,8.71986025 16.2068164,10.0361988 16.5341361,11.4257029 C16.8383508,12.7176529 18.1899885,13.5333848 19.4562664,13.252275 M21.2976,14.3677291 C21.1762992,14.4389693 21.0620582,14.5070004 20.94525,14.5711807 C20.9311303,14.5782406 20.8958311,14.5692553 20.8829951,14.5551357 C20.7636197,14.4344766 20.6461697,14.3118922 20.5312869,14.1867406 C20.4947041,14.1469488 20.4677484,14.1341127 20.4144787,14.1585012 C20.2995959,14.2111291 20.1821459,14.2573389 20.0634123,14.3009816 C20.0043664,14.3221611 19.9883213,14.3555348 19.9934557,14.4152225 C20.0069336,14.5686135 20.0146352,14.7220045 20.0268295,14.8753955 C20.0293967,14.9126201 20.0261877,14.9350832 19.9838287,14.9472775 C19.8535426,14.9819348 19.7245402,15.0210848 19.5859107,15.0608766 C19.5140287,14.8863061 19.4402213,14.7162283 19.3741156,14.5429414 C19.3516525,14.4845373 19.3214877,14.4665668 19.2630836,14.469134 C19.1526934,14.472343 19.0416615,14.4749102 18.9325549,14.4697758 C18.860673,14.4665668 18.8234484,14.4877463 18.8029107,14.5589865 C18.7554172,14.7220045 18.6989385,14.8830971 18.6495197,15.0454734 C18.638609,15.0820561 18.6219221,15.089116 18.5853393,15.0865488 C18.4730238,15.0782053 18.3607082,15.0711455 18.2477508,15.0711455 C18.1880631,15.0711455 18.1810033,15.0409807 18.1777943,14.9947709 C18.1656,14.8163496 18.1508385,14.6372865 18.1399279,14.4588652 C18.1367189,14.4088045 18.120032,14.381207 18.0706131,14.3625947 C17.9653574,14.3234447 17.862027,14.2791602 17.7599803,14.2297414 C17.6983672,14.2008602 17.6592172,14.2136963 17.6213508,14.2688914 C17.5083934,14.433193 17.3915852,14.5955693 17.2741352,14.7630799 C17.1438492,14.7085266 17.0174139,14.655257 16.8794262,14.5974947 C16.906382,14.4800447 16.9320541,14.3645201 16.9590098,14.2496373 C16.9776221,14.1732627 16.9962344,14.0968881 17.0161303,14.0217971 C17.0289664,13.9749455 17.0212648,13.9402881 16.9795475,13.908198 C16.8916205,13.8420922 16.8062607,13.7721357 16.723468,13.6983283 C16.6804672,13.6604619 16.6445262,13.6623873 16.6008836,13.6931939 C16.4487762,13.800375 16.2966689,13.9075561 16.1445615,14.0140955 C16.1298,14.0250061 16.1150385,14.0346332 16.1009189,14.0436184 C16.0040066,13.9447807 15.9090197,13.8497939 15.8166,13.7503143 C15.8063311,13.7394037 15.810182,13.7028209 15.8210926,13.686134 C15.9128705,13.5372357 16.0040066,13.3883373 16.1015607,13.2445734 C16.1413525,13.1868111 16.1400689,13.1495865 16.0957844,13.0950332 C16.0239025,13.0083898 15.9603639,12.9153283 15.9006762,12.8196996 C15.8737205,12.776057 15.846123,12.7632209 15.8005549,12.776057 C15.6291934,12.821625 15.457832,12.8633422 15.2877541,12.9134029 C15.2287082,12.9307316 15.1953344,12.9243135 15.1658115,12.867193 C15.1234525,12.7837586 15.0766008,12.7022496 15.0252566,12.622666 C14.9963754,12.5777398 15.0111369,12.5552766 15.0457943,12.5257537 C15.2023943,12.394184 15.3557852,12.2594053 15.513027,12.1284775 C15.545759,12.1008799 15.5502516,12.080984 15.5348484,12.041834 C15.4918475,11.9327275 15.4526975,11.8216955 15.4180402,11.7106635 C15.4032787,11.6599611 15.3731139,11.6490504 15.3269041,11.6496922 C15.1728713,11.650334 15.0188385,11.6484086 14.8654475,11.6509758 C14.8166705,11.6516176 14.7903566,11.6419906 14.7813713,11.5874373 C14.7582664,11.4590766 14.7274598,11.3319996 14.6979369,11.1959373 C14.8500443,11.1433094 14.9983008,11.089398 15.1484828,11.0419045 C15.301232,10.9924857 15.301232,10.9950529 15.3121426,10.8384529 C15.3185607,10.749884 15.3243369,10.6600316 15.3346057,10.5708209 C15.3423074,10.508566 15.3230533,10.4739086 15.262082,10.4514455 C15.105482,10.3923996 14.9508074,10.325652 14.7935656,10.267248 C14.7428631,10.2479939 14.7377287,10.2236053 14.7460721,10.1748283 C14.7634008,10.0734234 14.7755951,9.97009303 14.7820131,9.86740451 C14.7852221,9.80964221 14.8076852,9.79167172 14.8615967,9.79231352 C15.043227,9.79423893 15.2242156,9.79167172 15.4058459,9.79359713 C15.4539811,9.79423893 15.4796533,9.77819385 15.5008328,9.73326762 C15.548968,9.62865369 15.6028795,9.52724877 15.6580746,9.42648566 C15.6869557,9.37385779 15.6824631,9.33470779 15.6336861,9.29619959 C15.4764443,9.16976434 15.3211279,9.04012008 15.1593934,8.9072668 C15.2184393,8.79045861 15.2762016,8.67300861 15.3390984,8.55940943 C15.3468,8.54593156 15.382741,8.53822992 15.4013533,8.54336434 C15.5419082,8.58572336 15.6850303,8.62358975 15.8217344,8.67685943 C15.93405,8.72050205 16.0194098,8.71857664 16.0945008,8.6120373 C16.1400689,8.54657336 16.2003984,8.49073648 16.2588025,8.43554139 C16.2998779,8.39639139 16.3024451,8.35980861 16.2742057,8.31424057 C16.1843533,8.16662582 16.097068,8.01901107 16.0078574,7.87075451 C15.9918123,7.84315697 15.9744836,7.81620123 15.9577967,7.78924549 C16.0669033,7.69810943 16.1708754,7.60825697 16.2774148,7.52225533 C16.2876836,7.51391189 16.3210574,7.52353893 16.3364607,7.53509139 C16.4795828,7.63906352 16.6227049,7.74303566 16.762618,7.85085861 C16.8081861,7.88551598 16.840918,7.89642664 16.8941877,7.85856025 C16.9891746,7.7905291 17.0905795,7.73084139 17.1939098,7.67564631 C17.2394779,7.65125779 17.2535975,7.62494385 17.2452541,7.57873402 C17.2118803,7.40480533 17.1823574,7.23023484 17.1438492,7.05823156 C17.1310131,6.99661844 17.1419238,6.96452828 17.1990443,6.93949795 C17.2831205,6.90291516 17.3665549,6.86376516 17.4461385,6.81883893 C17.4929902,6.7931668 17.5173787,6.80151025 17.5475434,6.84322746 C17.6675607,7.0088127 17.7914287,7.17118893 17.9108041,7.33741598 C17.9364762,7.37335697 17.9563721,7.37592418 17.9961639,7.36308811 C18.1059123,7.32971434 18.2163025,7.30019139 18.328618,7.27516107 C18.3818877,7.26360861 18.3992164,7.23665287 18.4024254,7.18659221 C18.4133361,7.03384303 18.4293811,6.87981025 18.43965,6.72641926 C18.442859,6.675075 18.4614713,6.6564627 18.5128156,6.65068648 C18.6424598,6.63785041 18.7721041,6.61859631 18.90945,6.60062582 C18.9530926,6.78097254 19.0018697,6.95554303 19.0358852,7.13332254 C19.0506467,7.21162254 19.0878713,7.23151844 19.1578279,7.23857828 C19.2579492,7.24884713 19.3580705,7.26617582 19.45755,7.28414631 C19.5595967,7.30275861 19.5628057,7.3021168 19.6096574,7.20648811 C19.682823,7.06079877 19.7585557,6.91575123 19.8291541,6.76813648 C19.8477664,6.72898648 19.8683041,6.72385205 19.9093795,6.7341209 C20.0139934,6.75979303 20.119891,6.78289795 20.2264303,6.79830123 C20.286118,6.80728648 20.2963869,6.83488402 20.2912525,6.88622828 C20.2739238,7.066575 20.2617295,7.24820533 20.2444008,7.42855205 C20.2392664,7.4779709 20.2546697,7.50300123 20.2976705,7.52674795 C20.3926574,7.58194303 20.4863607,7.63970533 20.5768549,7.70324385 C20.638468,7.74560287 20.680827,7.73982664 20.7308877,7.68655697 C20.857323,7.55242008 20.9863254,7.42213402 21.1159697,7.29184795 C21.1288057,7.27901189 21.1602541,7.26681762 21.1711648,7.27387746 C21.2821967,7.34255041 21.3906615,7.41571598 21.5087533,7.49401598 C21.4484238,7.63906352 21.3919451,7.7918127 21.3207049,7.93814385 C21.2674352,8.04660861 21.2623008,8.13132664 21.3630639,8.21476107 C21.4221098,8.26482172 21.4721705,8.32643484 21.5196639,8.38868975 C21.5581721,8.44003402 21.5992475,8.44195943 21.6512336,8.4162873 C21.803341,8.34055451 21.956732,8.26546352 22.1088393,8.19101434 C22.1377205,8.17689467 22.1659598,8.1621332 22.1929156,8.14865533 C22.2757082,8.26482172 22.3559336,8.37585369 22.4323082,8.48945287 C22.439368,8.50100533 22.4278156,8.53309549 22.4149795,8.54785697 C22.3013803,8.67942664 22.1871393,8.81163811 22.0684057,8.93935697 C22.0254049,8.98620861 22.0100016,9.01958238 22.0465844,9.08119549 C22.1069139,9.1813168 22.1569746,9.28785615 22.2025426,9.3950373 C22.2230803,9.44188893 22.2493943,9.45344139 22.2917533,9.44959057 C22.4669656,9.43226189 22.6441033,9.41685861 22.8186738,9.39375369 C22.8796451,9.38605205 22.9130189,9.3950373 22.9329148,9.45665041 C22.9611541,9.54457746 22.9926025,9.6305791 23.0317525,9.71337172 C23.05935,9.77177582 23.0343197,9.79231352 22.9900352,9.81926926 C22.818032,9.92259959 22.6498795,10.0297807 22.478518,10.1324693 C22.4438607,10.153007 22.4335918,10.1716193 22.4412934,10.2146201 C22.465682,10.3404135 22.4855779,10.4674906 22.501623,10.5952094 C22.5086828,10.6452701 22.5305041,10.6664496 22.5786393,10.6735094 C22.7326721,10.6985398 22.8867049,10.7274209 23.0407377,10.7518094 C23.0869475,10.7588693 23.108127,10.7742725 23.108127,10.8256168 C23.1094107,10.9559029 23.1177541,11.0861889 23.1235303,11.2119824 C23.0041549,11.2376545 22.8911975,11.2646102 22.7769566,11.2864316 C22.7025074,11.2999094 22.6267746,11.3088947 22.5510418,11.3146709 C22.5073992,11.3185217 22.4862197,11.337134 22.4759508,11.3788512 C22.4470697,11.5040029 22.4169049,11.6297963 22.384173,11.7536643 C22.3706951,11.8062922 22.390591,11.8338898 22.4335918,11.8602037 C22.5850574,11.9513398 22.7345975,12.045043 22.8860631,12.1387463 C22.8969738,12.1451643 22.9078844,12.1541496 22.9162279,12.1605676 C22.8783615,12.2914955 22.8411369,12.4192143 22.8064795,12.547575 C22.7923598,12.5969939 22.7570607,12.5873668 22.7236869,12.5815906 C22.5465492,12.5514258 22.3694115,12.5231865 22.1941992,12.4891709 C22.1370787,12.4782602 22.1062721,12.4936635 22.0748238,12.5405152 C22.0125689,12.6310094 21.9445377,12.7182947 21.8758648,12.8042963 C21.836073,12.8537152 21.8341475,12.893507 21.8777902,12.9429258 C22.0016582,13.0815553 22.11975,13.2253193 22.2442598,13.3645906 C22.2718574,13.3960389 22.269932,13.415293 22.2461852,13.4460996 C22.1800795,13.5288922 22.116541,13.6129684 22.0555697,13.6989701 C22.0305393,13.7349111 22.0080762,13.7400455 21.9708516,13.7201496 C21.8225951,13.6418496 21.6711295,13.5680422 21.5247984,13.4865332 C21.4567672,13.4499504 21.4047811,13.4525176 21.3450934,13.5038619 C21.2725697,13.5667586 21.1942697,13.6238791 21.1140443,13.6771488 C21.059491,13.7137316 21.0582074,13.7541652 21.0787451,13.806793 C21.1448508,13.9743037 21.209673,14.1411725 21.2751369,14.3086832 C21.2821967,14.3272955 21.2892566,14.3465496 21.2976,14.3677291" id="Fill-7" fill="#A6C1FF"></path>
                </g>
            </g>
        </g>
    </g>
</svg>