<?xml version="1.0" encoding="UTF-8"?>
<svg width="24px" height="24px" viewBox="0 0 24 24" version="1.1" xmlns="http://www.w3.org/2000/svg" xmlns:xlink="http://www.w3.org/1999/xlink">
    <!-- Generator: Sketch 63.1 (92452) - https://sketch.com -->
    <title>27) Icon/more-vertical</title>
    <desc>Created with Sketch.</desc>
    <g id="27)-Icon/more-vertical" stroke="none" stroke-width="1" fill="none" fill-rule="evenodd">
       <path d="M12,17 C13.104,17 14,17.896 14,19 C14,20.104 13.104,21 12,21 C10.896,21 10,20.104 10,19 C10,17.896 10.896,17 12,17 Z M12,10 C13.104,10 14,10.896 14,12 C14,13.104 13.104,14 12,14 C10.896,14 10,13.104 10,12 C10,10.896 10.896,10 12,10 Z M12,3 C13.104,3 14,3.896 14,5 C14,6.104 13.104,7 12,7 C10.896,7 10,6.104 10,5 C10,3.896 10.896,3 12,3 Z" id="path-1"></path>
    </g>
</svg>