<?xml version="1.0" encoding="UTF-8"?>
<svg width="24px" height="24px" viewBox="0 0 24 24" version="1.1" xmlns="http://www.w3.org/2000/svg" xmlns:xlink="http://www.w3.org/1999/xlink">
    <!-- Generator: Sketch 63.1 (92452) - https://sketch.com -->
    <title>27) Icon/history</title>
    <desc>Created with Sketch.</desc>
    <g id="27)-Icon/history" stroke="none" stroke-width="1" fill="none" fill-rule="evenodd">
        <path d="M8.78977745,2.68153083 C13.4850365,0.784523042 18.8173208,2.9841851 20.6764933,7.58579857 C22.5356658,12.187412 20.2279552,17.4738324 15.5326961,19.3708402 C13.4335519,20.2189495 11.1505643,20.2623306 9.06792231,19.549604 L9.06792231,19.549604 L9.35553641,20.9875689 C9.46400043,21.5283124 9.10946503,22.0522768 8.57114712,22.164075 C8.02985102,22.2738408 7.50255253,21.921731 7.3937139,21.3800603 L7.3937139,21.3800603 L6.59438415,17.3888715 C6.58116093,17.3241093 6.59022745,17.2611267 6.59037808,17.1974323 C6.59001345,17.14581 6.58018036,17.0947775 6.58725187,17.0455435 C6.59722691,16.9768012 6.62597959,16.9144932 6.65120151,16.8514547 C6.66720758,16.8083177 6.67279934,16.76076 6.69531436,16.7203858 C6.73018273,16.6545284 6.78292021,16.600865 6.83137772,16.5446168 C6.85763882,16.5135144 6.87571456,16.4781695 6.90477587,16.4513284 C6.98992746,16.3737836 7.08961405,16.3108583 7.19994893,16.2662802 C7.24908968,16.246426 7.3025104,16.2291568 7.35687697,16.2168981 L7.35687697,16.2168981 L11.5566734,15.2772015 C12.0953286,15.1555603 12.6303819,15.4948302 12.7510959,16.03386 C12.8714354,16.5719626 12.5405475,17.1144146 11.9931357,17.2277298 L11.9931357,17.2277298 L9.85112093,17.7081231 C11.4444864,18.2162368 13.1813092,18.1637927 14.7834829,17.5164725 C18.4569854,16.0322812 20.2677324,11.9130142 18.8221256,8.33501176 C17.3761442,4.75608208 13.2124931,3.05170722 9.53899064,4.53589854 C6.60167218,5.72265223 4.78547096,8.58978688 5.02029071,11.6722769 C5.06156689,12.2229095 4.64950008,12.7032489 4.09924207,12.7454523 C3.54860946,12.7867285 3.06827005,12.3746617 3.02606669,11.8244036 C2.72583055,7.86992412 5.04210031,4.19569068 8.78977745,2.68153083 Z M11.331723,7.95728039 C11.883723,7.95728039 12.331723,8.40428039 12.331723,8.95728039 L12.331723,8.95728039 L12.331723,10.9572804 L14.331723,10.9572804 C14.883723,10.9572804 15.331723,11.4042804 15.331723,11.9572804 C15.331723,12.5102804 14.883723,12.9572804 14.331723,12.9572804 L14.331723,12.9572804 L11.331723,12.9572804 C10.779723,12.9572804 10.331723,12.5102804 10.331723,11.9572804 L10.331723,11.9572804 L10.331723,8.95728039 C10.331723,8.40428039 10.779723,7.95728039 11.331723,7.95728039 Z" id="Combined-Shape" fill="#222B45"></path>
    </g>
</svg>