<?xml version="1.0" encoding="UTF-8"?>
<svg width="24px" height="24px" viewBox="0 0 24 24" version="1.1" xmlns="http://www.w3.org/2000/svg" xmlns:xlink="http://www.w3.org/1999/xlink">
    <!-- Generator: Sketch 63.1 (92452) - https://sketch.com -->
    <title>27) Icon/organization</title>
    <desc>Created with Sketch.</desc>
    <g id="27)-Icon/organization" stroke="none" stroke-width="1" fill="none" fill-rule="evenodd">
        <path d="M10,5.5 C10,5.224 10.224,5 10.5,5 L13.5,5 C13.776,5 14,5.224 14,5.5 L14,7 L10,7 L10,5.5 Z M15,9 L15,19 L9,19 L9,9 L15,9 Z M19,9 C19.551,9 20,9.449 20,10 L20,18 C20,18.551 19.551,19 19,19 L17,19 L17,9 L19,9 Z M7,9 L7,19 L5,19 C4.449,19 4,18.551 4,18 L4,10 C4,9.449 4.449,9 5,9 L7,9 Z M19,7 L16,7 L16,5.5 C16,4.122 14.878,3 13.5,3 L10.5,3 C9.122,3 8,4.122 8,5.5 L8,7 L5,7 C3.346,7 2,8.346 2,10 L2,18 C2,19.654 3.346,21 5,21 L19,21 C20.654,21 22,19.654 22,18 L22,10 C22,8.346 20.654,7 19,7 L19,7 Z" id="🎨-Icon-Сolor" fill="#222B45"></path>
    </g>
</svg>